<svg xmlns="http://www.w3.org/2000/svg" width="48" height="532" viewBox="0 0 48 532">
    <path fill="#FFF" fill-rule="evenodd" d="M13.576 25.16v-3.062c0-1.654.667-2.788 1.786-3.74l4.657-3.582c1.052-.884 1.813-1.318 1.905-2.196v3.074c0 1.654-.666 2.788-1.785 3.74l-4.658 3.582c-1.05.884-1.813 1.307-1.905 2.184M9.584 2.184L4.927 5.766c-1.12.952-1.786 2.086-1.786 3.74v3.074c.093-.878.854-1.312 1.906-2.196L9.704 6.8c1.118-.95 1.786-2.085 1.786-3.739V0c-.092.877-.855 1.3-1.906 2.184M13.576 0v3.062c0 1.654.667 2.788 1.786 3.74l4.657 3.582c1.052.884 1.813 1.318 1.905 2.196V9.506c0-1.654-.666-2.788-1.785-3.74L15.48 2.184C14.431 1.3 13.668.877 13.576 0M9.584 22.976l-4.657-3.582c-1.12-.952-1.786-2.086-1.786-3.74V12.58c.093.878.854 1.312 1.906 2.196l4.657 3.583c1.118.951 1.786 2.085 1.786 3.74v3.061c-.092-.877-.855-1.3-1.906-2.184m3.992 178.464v-3.062c0-1.654.667-2.788 1.786-3.74l4.657-3.582c1.052-.884 1.813-1.318 1.905-2.195v3.073c0 1.654-.666 2.788-1.785 3.74l-4.658 3.582c-1.05.884-1.813 1.307-1.905 2.184m-3.992-22.976l-4.657 3.583c-1.12.95-1.786 2.085-1.786 3.739v3.075c.093-.879.854-1.313 1.906-2.197l4.657-3.582c1.118-.952 1.786-2.086 1.786-3.74v-3.062c-.092.877-.855 1.3-1.906 2.184m3.992-2.184v3.062c0 1.654.667 2.788 1.786 3.74l4.657 3.582c1.052.884 1.813 1.318 1.905 2.197v-3.075c0-1.654-.666-2.788-1.785-3.74l-4.658-3.582c-1.05-.884-1.813-1.307-1.905-2.184m-3.992 22.976l-4.657-3.582c-1.12-.952-1.786-2.086-1.786-3.74v-3.073c.093.877.854 1.311 1.906 2.195l4.657 3.583c1.118.951 1.786 2.085 1.786 3.74v3.061c-.092-.877-.855-1.3-1.906-2.184m3.992 178.464v-3.062c0-1.654.667-2.788 1.786-3.738l4.657-3.584c1.052-.884 1.813-1.318 1.905-2.195v3.073c0 1.654-.666 2.789-1.785 3.74l-4.658 3.582c-1.05.884-1.813 1.307-1.905 2.184m-3.992-22.976l-4.657 3.583c-1.12.95-1.786 2.085-1.786 3.739v3.075c.093-.878.854-1.313 1.906-2.196l4.657-3.583c1.118-.952 1.786-2.086 1.786-3.74v-3.062c-.092.877-.855 1.3-1.906 2.184m3.992-2.184v3.062c0 1.654.667 2.788 1.786 3.74l4.657 3.583c1.052.883 1.813 1.318 1.905 2.196v-3.075c0-1.654-.666-2.788-1.785-3.739l-4.658-3.583c-1.05-.884-1.813-1.307-1.905-2.184m-3.992 22.976l-4.657-3.582c-1.12-.951-1.786-2.086-1.786-3.74v-3.073c.093.877.854 1.311 1.906 2.195l4.657 3.584c1.118.95 1.786 2.084 1.786 3.738v3.062c-.092-.877-.855-1.3-1.906-2.184m3.97-306.283V66.19c0-1.654.667-2.788 1.785-3.74l4.658-3.582c1.051-.884 1.813-1.319 1.905-2.197v3.075c0 1.654-.667 2.788-1.785 3.739l-4.658 3.583c-1.051.884-1.813 1.306-1.905 2.184M9.561 46.277l-4.657 3.582c-1.118.951-1.785 2.086-1.785 3.74v3.073c.092-.877.854-1.312 1.905-2.196l4.657-3.582c1.119-.951 1.786-2.085 1.786-3.74v-3.061c-.092.877-.854 1.3-1.906 2.184m3.993-2.184v3.062c0 1.654.667 2.788 1.785 3.739l4.658 3.582c1.051.884 1.813 1.319 1.905 2.196v-3.074c0-1.653-.667-2.788-1.785-3.739l-4.658-3.582c-1.051-.884-1.813-1.307-1.905-2.184M9.561 67.069l-4.657-3.583c-1.118-.951-1.785-2.085-1.785-3.74v-3.074c.092.878.854 1.313 1.905 2.197l4.657 3.582c1.119.952 1.786 2.086 1.786 3.74v3.062c-.092-.878-.854-1.3-1.906-2.184m3.993 178.464v-3.062c0-1.654.667-2.788 1.785-3.74l4.658-3.582c1.051-.884 1.813-1.319 1.905-2.196v3.074c0 1.654-.667 2.788-1.785 3.74l-4.658 3.582c-1.051.884-1.813 1.307-1.905 2.184m-3.993-22.976l-4.657 3.582c-1.118.951-1.785 2.086-1.785 3.74v3.074c.092-.878.854-1.312 1.905-2.196l4.657-3.583c1.119-.951 1.786-2.085 1.786-3.74v-3.061c-.092.877-.854 1.3-1.906 2.184m3.993-2.184v3.062c0 1.654.667 2.788 1.785 3.74l4.658 3.582c1.051.884 1.813 1.318 1.905 2.196v-3.074c0-1.654-.667-2.789-1.785-3.74l-4.658-3.582c-1.051-.884-1.813-1.307-1.905-2.184m-3.993 22.976l-4.657-3.583c-1.118-.95-1.785-2.085-1.785-3.739v-3.074c.092.877.854 1.312 1.905 2.196l4.657 3.582c1.119.952 1.786 2.086 1.786 3.74v3.062c-.092-.877-.854-1.3-1.906-2.184m3.993 178.464v-3.062c0-1.654.667-2.788 1.785-3.74l4.658-3.582c1.051-.884 1.813-1.318 1.905-2.196v3.074c0 1.654-.667 2.788-1.785 3.74l-4.658 3.582c-1.051.884-1.813 1.307-1.905 2.184m-3.993-22.976l-4.657 3.583c-1.118.95-1.785 2.085-1.785 3.739v3.074c.092-.878.854-1.312 1.905-2.196l4.657-3.583c1.119-.951 1.786-2.085 1.786-3.74v-3.061c-.092.877-.854 1.3-1.906 2.184m3.993-2.184v3.062c0 1.654.667 2.788 1.785 3.74l4.658 3.582c1.051.884 1.813 1.318 1.905 2.196v-3.074c0-1.654-.667-2.788-1.785-3.739l-4.658-3.583c-1.051-.884-1.813-1.307-1.905-2.184m-3.993 22.976l-4.657-3.583c-1.118-.95-1.785-2.085-1.785-3.739v-3.074c.092.878.854 1.312 1.905 2.196l4.657 3.582c1.119.952 1.786 2.086 1.786 3.74v3.062c-.092-.877-.854-1.3-1.906-2.184m3.993-306.306v-3.063c0-1.654.667-2.788 1.785-3.738l4.658-3.583c1.051-.884 1.813-1.319 1.905-2.196v3.074c0 1.653-.667 2.788-1.785 3.739l-4.658 3.582c-1.051.884-1.813 1.308-1.905 2.185M9.561 90.346L4.904 93.93c-1.118.951-1.785 2.086-1.785 3.74v3.074c.092-.878.854-1.313 1.905-2.196l4.657-3.583c1.119-.952 1.786-2.086 1.786-3.74v-3.062c-.092.878-.854 1.3-1.906 2.184m3.993-2.184v3.062c0 1.654.667 2.788 1.785 3.74l4.658 3.583c1.051.883 1.813 1.318 1.905 2.196v-3.075c0-1.653-.667-2.788-1.785-3.739l-4.658-3.583c-1.051-.884-1.813-1.306-1.905-2.184m-3.993 22.976l-4.657-3.582c-1.118-.951-1.785-2.086-1.785-3.74v-3.073c.092.877.854 1.312 1.905 2.196l4.657 3.583c1.119.95 1.786 2.084 1.786 3.738v3.063c-.092-.877-.854-1.3-1.906-2.185m3.993 178.465v-3.062c0-1.654.667-2.789 1.785-3.74l4.658-3.582c1.051-.884 1.813-1.318 1.905-2.196v3.074c0 1.654-.667 2.788-1.785 3.739l-4.658 3.583c-1.051.883-1.813 1.307-1.905 2.184m-3.993-22.976l-4.657 3.583c-1.118.95-1.785 2.085-1.785 3.739v3.074c.092-.878.854-1.312 1.905-2.196l4.657-3.583c1.119-.95 1.786-2.086 1.786-3.739v-3.063c-.092.878-.854 1.301-1.906 2.185m3.993-2.185v3.063c0 1.653.667 2.788 1.785 3.739l4.658 3.583c1.051.884 1.813 1.318 1.905 2.196v-3.074c0-1.654-.667-2.788-1.785-3.74l-4.658-3.582c-1.051-.884-1.813-1.307-1.905-2.185M9.561 287.42l-4.657-3.583c-1.118-.95-1.785-2.085-1.785-3.74v-3.073c.092.878.854 1.312 1.905 2.196l4.657 3.583c1.119.95 1.786 2.085 1.786 3.74v3.061c-.092-.877-.854-1.3-1.906-2.184m3.993 178.464v-3.062c0-1.654.667-2.788 1.785-3.74l4.658-3.582c1.051-.884 1.813-1.318 1.905-2.196v3.074c0 1.654-.667 2.789-1.785 3.74l-4.658 3.582c-1.051.884-1.813 1.307-1.905 2.184m-3.993-22.976l-4.657 3.583c-1.118.95-1.785 2.085-1.785 3.739v3.074c.092-.877.854-1.312 1.905-2.196l4.657-3.582c1.119-.952 1.786-2.086 1.786-3.74v-3.062c-.092.877-.854 1.3-1.906 2.184m3.993-2.184v3.062c0 1.654.667 2.788 1.785 3.74l4.658 3.582c1.051.884 1.813 1.319 1.905 2.196v-3.074c0-1.654-.667-2.788-1.785-3.74l-4.658-3.582c-1.051-.884-1.813-1.307-1.905-2.184M9.561 463.7l-4.657-3.582c-1.118-.951-1.785-2.086-1.785-3.74v-3.074c.092.878.854 1.312 1.905 2.196l4.657 3.583c1.119.951 1.786 2.085 1.786 3.74v3.061c-.092-.877-.854-1.3-1.906-2.184m3.993-306.306v-3.062c0-1.654.667-2.788 1.785-3.74l4.658-3.582c1.051-.884 1.813-1.319 1.905-2.197v3.075c0 1.654-.667 2.788-1.785 3.74l-4.658 3.582c-1.051.884-1.813 1.306-1.905 2.184m-3.993-22.976l-4.657 3.582c-1.118.951-1.785 2.086-1.785 3.74v3.073c.092-.877.854-1.312 1.905-2.195l4.657-3.583c1.119-.951 1.786-2.085 1.786-3.74v-3.061c-.092.877-.854 1.3-1.906 2.184m3.993-2.184v3.062c0 1.654.667 2.788 1.785 3.74l4.658 3.582c1.051.883 1.813 1.318 1.905 2.195v-3.074c0-1.653-.667-2.788-1.785-3.739l-4.658-3.582c-1.051-.884-1.813-1.307-1.905-2.184m-3.993 22.976l-4.657-3.583c-1.118-.951-1.785-2.085-1.785-3.74v-3.074c.092.878.854 1.313 1.905 2.197l4.657 3.582c1.119.952 1.786 2.086 1.786 3.74v3.062c-.092-.878-.854-1.3-1.906-2.184m3.993 178.464v-3.062c0-1.654.667-2.788 1.785-3.74l4.658-3.582c1.051-.884 1.813-1.319 1.905-2.196v3.074c0 1.654-.667 2.788-1.785 3.74l-4.658 3.582c-1.051.884-1.813 1.307-1.905 2.184m-3.993-22.976l-4.657 3.582c-1.118.951-1.785 2.086-1.785 3.74v3.074c.092-.878.854-1.312 1.905-2.196l4.657-3.583c1.119-.951 1.786-2.085 1.786-3.74v-3.061c-.092.877-.854 1.3-1.906 2.184m3.993-2.184v3.062c0 1.654.667 2.788 1.785 3.74l4.658 3.582c1.051.884 1.813 1.318 1.905 2.196v-3.074c0-1.654-.667-2.789-1.785-3.74l-4.658-3.582c-1.051-.884-1.813-1.307-1.905-2.184m-3.993 22.976l-4.657-3.583c-1.118-.95-1.785-2.085-1.785-3.739v-3.074c.092.877.854 1.312 1.905 2.196l4.657 3.582c1.119.952 1.786 2.086 1.786 3.74v3.062c-.092-.877-.854-1.3-1.906-2.184m3.993 178.465v-3.063c0-1.654.667-2.788 1.785-3.739l4.658-3.583c1.051-.884 1.813-1.318 1.905-2.196v3.074c0 1.654-.667 2.788-1.785 3.74l-4.658 3.582c-1.051.884-1.813 1.307-1.905 2.185m-3.993-22.977l-4.657 3.583c-1.118.95-1.785 2.086-1.785 3.739v3.074c.092-.878.854-1.312 1.905-2.196l4.657-3.583c1.119-.951 1.786-2.085 1.786-3.74v-3.061c-.092.877-.854 1.3-1.906 2.184m3.993-2.184v3.062c0 1.654.667 2.788 1.785 3.74l4.658 3.582c1.051.884 1.813 1.318 1.905 2.196V494.3c0-1.653-.667-2.788-1.785-3.739l-4.658-3.583c-1.051-.884-1.813-1.307-1.905-2.184m-3.993 22.976l-4.657-3.582c-1.118-.952-1.785-2.086-1.785-3.74v-3.074c.092.878.854 1.312 1.905 2.196l4.657 3.583c1.119.95 1.786 2.085 1.786 3.739v3.063c-.092-.878-.854-1.301-1.906-2.185M34.446 22.034v3.063c0 1.654-.668 2.788-1.786 3.739l-4.657 3.583c-1.052.884-1.813 1.319-1.905 2.196V31.54c0-1.654.666-2.788 1.785-3.74l4.658-3.582c1.051-.884 1.813-1.307 1.905-2.185m3.992 22.977l4.657-3.583c1.12-.95 1.786-2.085 1.786-3.739v-3.074c-.092.878-.854 1.312-1.906 2.196l-4.656 3.583c-1.12.951-1.787 2.085-1.787 3.74v3.061c.093-.877.855-1.3 1.906-2.184m-3.992 2.184v-3.062c0-1.654-.668-2.788-1.786-3.74l-4.657-3.582c-1.052-.884-1.813-1.318-1.905-2.196v3.074c0 1.654.666 2.789 1.785 3.74l4.658 3.582c1.051.884 1.813 1.307 1.905 2.184m3.992-22.976l4.657 3.583c1.12.951 1.786 2.085 1.786 3.739v3.074c-.092-.877-.854-1.312-1.906-2.196l-4.656-3.583c-1.12-.95-1.787-2.085-1.787-3.739v-3.063c.093.878.855 1.301 1.906 2.185m-3.992 174.096v3.062c0 1.654-.668 2.788-1.786 3.74l-4.657 3.582c-1.052.884-1.813 1.319-1.905 2.196v-3.074c0-1.654.666-2.788 1.785-3.74l4.658-3.582c1.051-.884 1.813-1.306 1.905-2.184m3.992 22.976l4.657-3.582c1.12-.951 1.786-2.086 1.786-3.74v-3.074c-.092.878-.854 1.313-1.906 2.197l-4.656 3.582c-1.12.951-1.787 2.086-1.787 3.74v3.061c.093-.877.855-1.3 1.906-2.184m-3.992 2.184v-3.062c0-1.653-.668-2.788-1.786-3.739l-4.657-3.582c-1.052-.884-1.813-1.319-1.905-2.197v3.075c0 1.653.666 2.788 1.785 3.739l4.658 3.582c1.051.884 1.813 1.307 1.905 2.184m3.992-22.976l4.657 3.583c1.12.951 1.786 2.085 1.786 3.74v3.073c-.092-.877-.854-1.312-1.906-2.196l-4.656-3.582c-1.12-.952-1.787-2.086-1.787-3.74v-3.062c.093.878.855 1.3 1.906 2.184m-3.992 174.096v3.062c0 1.654-.668 2.788-1.786 3.74l-4.657 3.582c-1.052.884-1.813 1.319-1.905 2.197V384.1c0-1.654.666-2.788 1.785-3.74l4.658-3.582c1.051-.884 1.813-1.306 1.905-2.184m3.992 22.977l4.657-3.583c1.12-.951 1.786-2.085 1.786-3.74v-3.073c-.092.877-.854 1.312-1.906 2.196l-4.656 3.582c-1.12.951-1.787 2.086-1.787 3.74v3.062c.093-.878.855-1.3 1.906-2.184m-3.992 2.184v-3.063c0-1.653-.668-2.788-1.786-3.739l-4.657-3.582c-1.052-.884-1.813-1.319-1.905-2.196v3.074c0 1.654.666 2.788 1.785 3.74l4.658 3.582c1.051.883 1.813 1.306 1.905 2.184m3.992-22.977l4.657 3.583c1.12.951 1.786 2.085 1.786 3.74v3.074c-.092-.878-.854-1.313-1.906-2.197l-4.656-3.582c-1.12-.952-1.787-2.086-1.787-3.74v-3.062c.093.878.855 1.3 1.906 2.184M34.423 66.14V69.2c0 1.654-.667 2.788-1.785 3.74l-4.658 3.582c-1.05.884-1.813 1.318-1.905 2.196v-3.074c0-1.654.667-2.788 1.785-3.74l4.658-3.582c1.051-.884 1.813-1.307 1.905-2.184m3.993 22.976l4.657-3.583c1.118-.95 1.786-2.085 1.786-3.739V78.72c-.093.878-.855 1.312-1.906 2.196l-4.657 3.583c-1.119.95-1.786 2.085-1.786 3.739v3.062c.092-.877.854-1.3 1.906-2.184M34.423 91.3v-3.062c0-1.654-.667-2.788-1.785-3.74l-4.658-3.582c-1.05-.884-1.813-1.318-1.905-2.196v3.074c0 1.654.667 2.788 1.785 3.739l4.658 3.583c1.051.884 1.813 1.307 1.905 2.184m3.993-22.976l4.657 3.582c1.118.952 1.786 2.086 1.786 3.74v3.074c-.093-.878-.855-1.312-1.906-2.196l-4.657-3.583c-1.119-.951-1.786-2.085-1.786-3.74V66.14c.092.877.854 1.3 1.906 2.184m-3.993 174.096v3.062c0 1.654-.667 2.788-1.785 3.74l-4.658 3.582c-1.05.884-1.813 1.318-1.905 2.196v-3.074c0-1.654.667-2.788 1.785-3.74l4.658-3.582c1.051-.884 1.813-1.307 1.905-2.184m3.993 22.976l4.657-3.582c1.118-.952 1.786-2.086 1.786-3.74V255c-.093.878-.855 1.312-1.906 2.196l-4.657 3.583c-1.119.951-1.786 2.085-1.786 3.74v3.061c.092-.877.854-1.3 1.906-2.184m-3.993 2.184v-3.062c0-1.654-.667-2.788-1.785-3.74l-4.658-3.582c-1.05-.884-1.813-1.318-1.905-2.196v3.074c0 1.654.667 2.788 1.785 3.74l4.658 3.582c1.051.884 1.813 1.307 1.905 2.184m3.993-22.976l4.657 3.582c1.118.952 1.786 2.086 1.786 3.74v3.074c-.093-.878-.855-1.312-1.906-2.196l-4.657-3.583c-1.119-.95-1.786-2.085-1.786-3.739v-3.062c.092.877.854 1.3 1.906 2.184m-3.993 174.096v3.062c0 1.654-.667 2.788-1.785 3.74l-4.658 3.582c-1.05.884-1.813 1.318-1.905 2.197v-3.075c0-1.654.667-2.788 1.785-3.739l4.658-3.583c1.051-.884 1.813-1.307 1.905-2.184m3.993 22.976l4.657-3.582c1.118-.952 1.786-2.086 1.786-3.74v-3.073c-.093.877-.855 1.311-1.906 2.195l-4.657 3.583c-1.119.951-1.786 2.085-1.786 3.74v3.061c.092-.877.854-1.3 1.906-2.184m-3.993 2.184v-3.062c0-1.654-.667-2.788-1.785-3.74l-4.658-3.582c-1.05-.884-1.813-1.318-1.905-2.195v3.073c0 1.654.667 2.788 1.785 3.74l4.658 3.582c1.051.884 1.813 1.307 1.905 2.184m3.993-22.976l4.657 3.583c1.118.95 1.786 2.085 1.786 3.739v3.075c-.093-.879-.855-1.313-1.906-2.197l-4.657-3.583c-1.119-.95-1.786-2.085-1.786-3.739V418.7c.092.877.854 1.3 1.906 2.184M34.423 110.21v3.062c0 1.653-.667 2.788-1.785 3.739l-4.658 3.583c-1.05.883-1.813 1.318-1.905 2.196v-3.075c0-1.653.667-2.788 1.785-3.738l4.658-3.583c1.051-.884 1.813-1.307 1.905-2.184m3.993 22.976l4.657-3.583c1.118-.951 1.786-2.085 1.786-3.74v-3.073c-.093.877-.855 1.312-1.906 2.196l-4.657 3.582c-1.119.952-1.786 2.086-1.786 3.74v3.062c.092-.877.854-1.3 1.906-2.184m-3.993 2.184v-3.062c0-1.654-.667-2.788-1.785-3.74l-4.658-3.582c-1.05-.884-1.813-1.319-1.905-2.196v3.074c0 1.654.667 2.788 1.785 3.74l4.658 3.582c1.051.884 1.813 1.307 1.905 2.184m3.993-22.976l4.657 3.583c1.118.95 1.786 2.085 1.786 3.738v3.075c-.093-.878-.855-1.313-1.906-2.196l-4.657-3.583c-1.119-.951-1.786-2.086-1.786-3.74v-3.061c.092.877.854 1.3 1.906 2.184m-3.993 174.096v3.062c0 1.654-.667 2.788-1.785 3.74l-4.658 3.582c-1.05.884-1.813 1.318-1.905 2.196v-3.074c0-1.654.667-2.788 1.785-3.74l4.658-3.582c1.051-.884 1.813-1.307 1.905-2.184m3.993 22.977l4.657-3.584c1.118-.95 1.786-2.085 1.786-3.74v-3.073c-.093.878-.855 1.313-1.906 2.196l-4.657 3.583c-1.119.95-1.786 2.086-1.786 3.74v3.062c.092-.878.854-1.301 1.906-2.184m-3.993 2.184v-3.062c0-1.654-.667-2.79-1.785-3.74l-4.658-3.583c-1.05-.883-1.813-1.318-1.905-2.196v3.074c0 1.654.667 2.789 1.785 3.74l4.658 3.583c1.051.883 1.813 1.306 1.905 2.184m3.993-22.977l4.657 3.583c1.118.951 1.786 2.085 1.786 3.74v3.073c-.093-.878-.855-1.312-1.906-2.196l-4.657-3.583c-1.119-.95-1.786-2.085-1.786-3.739v-3.062c.092.877.854 1.3 1.906 2.184M34.423 462.77v3.062c0 1.654-.667 2.789-1.785 3.74l-4.658 3.582c-1.05.884-1.813 1.319-1.905 2.196v-3.074c0-1.654.667-2.788 1.785-3.74l4.658-3.582c1.051-.884 1.813-1.306 1.905-2.184m3.993 22.977l4.657-3.584c1.118-.95 1.786-2.084 1.786-3.738v-3.075c-.093.878-.855 1.313-1.906 2.197l-4.657 3.582c-1.119.952-1.786 2.086-1.786 3.74v3.062c.092-.878.854-1.3 1.906-2.184m-3.993 2.184v-3.062c0-1.654-.667-2.788-1.785-3.74l-4.658-3.582c-1.05-.884-1.813-1.319-1.905-2.197v3.075c0 1.654.667 2.788 1.785 3.738l4.658 3.584c1.051.884 1.813 1.306 1.905 2.184m3.993-22.977l4.657 3.583c1.118.951 1.786 2.085 1.786 3.74v3.073c-.093-.877-.855-1.312-1.906-2.196l-4.657-3.582c-1.119-.951-1.786-2.086-1.786-3.74v-3.062c.092.878.854 1.3 1.906 2.184M34.423 154.28v3.062c0 1.654-.667 2.788-1.785 3.74l-4.658 3.582c-1.05.884-1.813 1.318-1.905 2.196v-3.074c0-1.654.667-2.788 1.785-3.74l4.658-3.582c1.051-.884 1.813-1.307 1.905-2.184m3.993 22.976l4.657-3.582c1.118-.952 1.786-2.086 1.786-3.74v-3.074c-.093.878-.855 1.312-1.906 2.196l-4.657 3.583c-1.119.951-1.786 2.085-1.786 3.74v3.061c.092-.877.854-1.3 1.906-2.184m-3.993 2.184v-3.062c0-1.654-.667-2.788-1.785-3.74l-4.658-3.582c-1.05-.884-1.813-1.318-1.905-2.196v3.074c0 1.654.667 2.788 1.785 3.74l4.658 3.582c1.051.884 1.813 1.307 1.905 2.184m3.993-22.976l4.657 3.582c1.118.952 1.786 2.086 1.786 3.74v3.074c-.093-.878-.855-1.312-1.906-2.196l-4.657-3.583c-1.119-.951-1.786-2.085-1.786-3.739v-3.062c.092.877.854 1.3 1.906 2.184m-3.993 174.096v3.062c0 1.654-.667 2.788-1.785 3.74l-4.658 3.582c-1.05.884-1.813 1.318-1.905 2.196v-3.074c0-1.654.667-2.788 1.785-3.74l4.658-3.582c1.051-.884 1.813-1.307 1.905-2.184m3.993 22.976l4.657-3.582c1.118-.952 1.786-2.086 1.786-3.74v-3.074c-.093.878-.855 1.312-1.906 2.196l-4.657 3.583c-1.119.951-1.786 2.085-1.786 3.74v3.061c.092-.877.854-1.3 1.906-2.184m-3.993 2.184v-3.062c0-1.654-.667-2.788-1.785-3.74l-4.658-3.582c-1.05-.884-1.813-1.318-1.905-2.196v3.074c0 1.654.667 2.788 1.785 3.74l4.658 3.582c1.051.884 1.813 1.307 1.905 2.184m3.993-22.976l4.657 3.582c1.118.952 1.786 2.086 1.786 3.74v3.074c-.093-.878-.855-1.312-1.906-2.196l-4.657-3.583c-1.119-.95-1.786-2.085-1.786-3.739v-3.062c.092.877.854 1.3 1.906 2.184m-3.993 174.096v3.062c0 1.654-.667 2.788-1.785 3.74l-4.658 3.583c-1.05.883-1.813 1.318-1.905 2.196v-3.075c0-1.653.667-2.788 1.785-3.739l4.658-3.583c1.051-.884 1.813-1.307 1.905-2.184m3.993 22.976l4.657-3.582c1.118-.951 1.786-2.086 1.786-3.74v-3.073c-.093.877-.855 1.311-1.906 2.195l-4.657 3.584c-1.119.95-1.786 2.084-1.786 3.738V532c.092-.877.854-1.3 1.906-2.185M34.423 532v-3.063c0-1.654-.667-2.788-1.785-3.738l-4.658-3.584c-1.05-.884-1.813-1.318-1.905-2.195v3.073c0 1.654.667 2.789 1.785 3.74l4.658 3.582c1.051.884 1.813 1.308 1.905 2.185m3.993-22.977l4.657 3.583c1.118.95 1.786 2.086 1.786 3.739v3.075c-.093-.878-.855-1.313-1.906-2.196l-4.657-3.583c-1.119-.952-1.786-2.086-1.786-3.74v-3.062c.092.877.854 1.3 1.906 2.184M.022 25.171h3.045c1.645 0 2.773.671 3.719 1.796l3.563 4.683c.879 1.058 1.31 1.823 2.184 1.916H9.475c-1.644 0-2.772-.67-3.718-1.795l-3.563-4.684c-.88-1.057-1.3-1.823-2.172-1.916m22.849 16.972l-3.563-4.684c-.946-1.124-2.074-1.795-3.718-1.795h-3.057c.872.092 1.304.859 2.184 1.916l3.563 4.683c.945 1.125 2.073 1.796 3.718 1.796h3.046c-.873-.093-1.294-.86-2.173-1.916m2.173-16.972h-3.046c-1.645 0-2.773.671-3.718 1.796l-3.563 4.683c-.88 1.058-1.312 1.823-2.184 1.916h3.057c1.644 0 2.772-.67 3.718-1.795l3.563-4.684c.88-1.057 1.3-1.823 2.173-1.916M2.194 42.143l3.563-4.684c.946-1.124 2.074-1.795 3.718-1.795h3.058c-.873.092-1.305.859-2.184 1.916l-3.563 4.683c-.946 1.125-2.074 1.796-3.719 1.796H.022c.873-.093 1.293-.86 2.172-1.916M.022 201.45h3.045c1.645 0 2.773.671 3.719 1.796l3.563 4.683c.879 1.058 1.31 1.823 2.184 1.916H9.475c-1.644 0-2.772-.67-3.718-1.795l-3.563-4.684c-.88-1.057-1.3-1.823-2.172-1.916m22.849 16.972l-3.563-4.684c-.946-1.124-2.074-1.794-3.718-1.794h-3.057c.872.092 1.304.858 2.184 1.915l3.563 4.683c.945 1.125 2.073 1.796 3.718 1.796h3.046c-.873-.093-1.294-.86-2.173-1.916m2.173-16.972h-3.046c-1.645 0-2.773.671-3.718 1.796l-3.563 4.683c-.88 1.058-1.312 1.823-2.184 1.916h3.057c1.644 0 2.772-.67 3.718-1.795l3.563-4.684c.88-1.057 1.3-1.823 2.173-1.916m-22.85 16.972l3.563-4.684c.946-1.124 2.074-1.794 3.718-1.794h3.058c-.873.092-1.305.858-2.184 1.915l-3.563 4.683c-.946 1.125-2.074 1.796-3.719 1.796H.022c.873-.093 1.293-.86 2.172-1.916M.022 377.731h3.045c1.645 0 2.773.672 3.719 1.796l3.563 4.683c.879 1.058 1.31 1.823 2.184 1.916H9.475c-1.644 0-2.772-.67-3.718-1.795l-3.563-4.684c-.88-1.056-1.3-1.823-2.172-1.916m22.849 16.972l-3.563-4.683c-.946-1.125-2.074-1.795-3.718-1.795h-3.057c.872.092 1.304.858 2.184 1.916l3.563 4.682c.945 1.125 2.073 1.796 3.718 1.796h3.046c-.873-.092-1.294-.86-2.173-1.916m2.173-16.972h-3.046c-1.645 0-2.773.672-3.718 1.796l-3.563 4.683c-.88 1.058-1.312 1.823-2.184 1.916h3.057c1.644 0 2.772-.67 3.718-1.795l3.563-4.684c.88-1.056 1.3-1.823 2.173-1.916m-22.85 16.972l3.563-4.683c.946-1.125 2.074-1.795 3.718-1.795h3.058c-.873.092-1.305.858-2.184 1.916l-3.563 4.682c-.946 1.125-2.074 1.796-3.719 1.796H.022c.873-.092 1.293-.86 2.172-1.916M0 69.275h3.045c1.645 0 2.773.67 3.719 1.796l3.562 4.683c.88 1.058 1.312 1.823 2.184 1.916H9.453c-1.645 0-2.772-.67-3.718-1.796l-3.563-4.683c-.88-1.057-1.3-1.824-2.172-1.916m22.849 16.971l-3.563-4.683c-.946-1.125-2.074-1.795-3.718-1.795H12.51c.873.092 1.305.858 2.184 1.916l3.563 4.683c.946 1.125 2.074 1.795 3.719 1.795h3.045c-.873-.092-1.293-.859-2.172-1.916m2.172-16.971h-3.045c-1.645 0-2.773.67-3.719 1.796l-3.563 4.683c-.879 1.058-1.31 1.823-2.184 1.916h3.058c1.644 0 2.772-.67 3.718-1.796l3.563-4.683c.879-1.057 1.3-1.824 2.172-1.916M2.17 86.246l3.564-4.683c.946-1.125 2.073-1.795 3.718-1.795h3.057c-.872.092-1.305.858-2.184 1.916l-3.562 4.683c-.946 1.125-2.074 1.795-3.719 1.795H0c.872-.092 1.293-.859 2.172-1.916M0 245.555h3.045c1.645 0 2.773.672 3.719 1.796l3.562 4.683c.88 1.058 1.312 1.823 2.184 1.916H9.453c-1.645 0-2.772-.67-3.718-1.796l-3.563-4.683c-.88-1.056-1.3-1.823-2.172-1.916m22.849 16.972l-3.563-4.683c-.946-1.126-2.074-1.796-3.718-1.796H12.51c.873.093 1.305.859 2.184 1.916l3.563 4.683c.946 1.125 2.074 1.796 3.719 1.796h3.045c-.873-.092-1.293-.86-2.172-1.916m2.172-16.972h-3.045c-1.645 0-2.773.672-3.719 1.796l-3.563 4.683c-.879 1.058-1.31 1.823-2.184 1.916h3.058c1.644 0 2.772-.67 3.718-1.796l3.563-4.683c.879-1.056 1.3-1.823 2.172-1.916M2.17 262.527l3.564-4.683c.946-1.126 2.073-1.796 3.718-1.796h3.057c-.872.093-1.305.859-2.184 1.916l-3.562 4.683c-.946 1.125-2.074 1.796-3.719 1.796H0c.872-.092 1.293-.86 2.172-1.916M0 421.836h3.045c1.645 0 2.773.67 3.719 1.795l3.562 4.683c.88 1.058 1.312 1.823 2.184 1.916H9.453c-1.645 0-2.772-.67-3.718-1.795l-3.563-4.683c-.88-1.057-1.3-1.824-2.172-1.916m22.849 16.971l-3.563-4.683c-.946-1.125-2.074-1.795-3.718-1.795H12.51c.873.092 1.305.858 2.184 1.916l3.563 4.682c.946 1.125 2.074 1.796 3.719 1.796h3.045c-.873-.092-1.293-.859-2.172-1.916m2.172-16.971h-3.045c-1.645 0-2.773.67-3.719 1.795l-3.563 4.683c-.879 1.058-1.31 1.823-2.184 1.916h3.058c1.644 0 2.772-.67 3.718-1.795l3.563-4.683c.879-1.057 1.3-1.824 2.172-1.916M2.17 438.807l3.564-4.683c.946-1.125 2.073-1.795 3.718-1.795h3.057c-.872.092-1.305.858-2.184 1.916l-3.562 4.682c-.946 1.125-2.074 1.796-3.719 1.796H0c.872-.092 1.293-.859 2.172-1.916M0 113.345h3.045c1.645 0 2.773.671 3.719 1.796l3.562 4.683c.88 1.057 1.312 1.823 2.184 1.916H9.453c-1.645 0-2.772-.67-3.718-1.795l-3.563-4.684c-.88-1.057-1.3-1.823-2.172-1.916m22.849 16.972l-3.563-4.684c-.946-1.125-2.074-1.795-3.718-1.795H12.51c.873.093 1.305.858 2.184 1.916l3.563 4.683c.946 1.125 2.074 1.796 3.719 1.796h3.045c-.873-.093-1.293-.86-2.172-1.916m2.172-16.972h-3.045c-1.645 0-2.773.671-3.719 1.796l-3.563 4.683c-.879 1.057-1.31 1.823-2.184 1.916h3.058c1.644 0 2.772-.67 3.718-1.795l3.563-4.684c.879-1.057 1.3-1.823 2.172-1.916M2.17 130.317l3.564-4.684c.946-1.125 2.073-1.795 3.718-1.795h3.057c-.872.093-1.305.858-2.184 1.916l-3.562 4.683c-.946 1.125-2.074 1.796-3.719 1.796H0c.872-.093 1.293-.86 2.172-1.916M0 289.625h3.045c1.645 0 2.773.671 3.719 1.796l3.562 4.683c.88 1.058 1.312 1.823 2.184 1.916H9.453c-1.645 0-2.772-.67-3.718-1.795l-3.563-4.684c-.88-1.057-1.3-1.823-2.172-1.916m22.849 16.972l-3.563-4.684c-.946-1.124-2.074-1.795-3.718-1.795H12.51c.873.093 1.305.858 2.184 1.916l3.563 4.683c.946 1.125 2.074 1.796 3.719 1.796h3.045c-.873-.093-1.293-.859-2.172-1.916m2.172-16.972h-3.045c-1.645 0-2.773.671-3.719 1.796l-3.563 4.683c-.879 1.058-1.31 1.823-2.184 1.916h3.058c1.644 0 2.772-.67 3.718-1.795l3.563-4.684c.879-1.057 1.3-1.823 2.172-1.916M2.17 306.597l3.564-4.684c.946-1.124 2.073-1.795 3.718-1.795h3.057c-.872.093-1.305.858-2.184 1.916l-3.562 4.683c-.946 1.125-2.074 1.796-3.719 1.796H0c.872-.093 1.293-.859 2.172-1.916M0 465.906h3.045c1.645 0 2.773.67 3.719 1.796l3.562 4.682c.88 1.058 1.312 1.824 2.184 1.916H9.453c-1.645 0-2.772-.67-3.718-1.795l-3.563-4.684c-.88-1.057-1.3-1.823-2.172-1.915m22.849 16.97l-3.563-4.682c-.946-1.125-2.074-1.795-3.718-1.795H12.51c.873.093 1.305.858 2.184 1.915l3.563 4.684c.946 1.124 2.074 1.795 3.719 1.795h3.045c-.873-.093-1.293-.859-2.172-1.916m2.172-16.971h-3.045c-1.645 0-2.773.67-3.719 1.796l-3.563 4.682c-.879 1.058-1.31 1.824-2.184 1.916h3.058c1.644 0 2.772-.67 3.718-1.795l3.563-4.684c.879-1.057 1.3-1.823 2.172-1.915m-22.85 16.97l3.564-4.682c.946-1.125 2.073-1.795 3.718-1.795h3.057c-.872.093-1.305.858-2.184 1.915l-3.562 4.684c-.946 1.124-2.074 1.795-3.719 1.795H0c.872-.093 1.293-.859 2.172-1.916M0 157.415h3.045c1.645 0 2.773.671 3.719 1.796l3.562 4.683c.88 1.058 1.312 1.823 2.184 1.916H9.453c-1.645 0-2.772-.67-3.718-1.796l-3.563-4.683c-.88-1.057-1.3-1.823-2.172-1.916m22.849 16.972l-3.563-4.684c-.946-1.125-2.074-1.795-3.718-1.795H12.51c.873.093 1.305.858 2.184 1.916l3.563 4.683c.946 1.125 2.074 1.796 3.719 1.796h3.045c-.873-.093-1.293-.86-2.172-1.916m2.172-16.972h-3.045c-1.645 0-2.773.671-3.719 1.796l-3.563 4.683c-.879 1.058-1.31 1.823-2.184 1.916h3.058c1.644 0 2.772-.67 3.718-1.796l3.563-4.683c.879-1.057 1.3-1.823 2.172-1.916M2.17 174.387l3.564-4.684c.946-1.125 2.073-1.795 3.718-1.795h3.057c-.872.093-1.305.858-2.184 1.916l-3.562 4.683c-.946 1.125-2.074 1.796-3.719 1.796H0c.872-.093 1.293-.86 2.172-1.916M0 333.695h3.045c1.645 0 2.773.672 3.719 1.796l3.562 4.683c.88 1.058 1.312 1.823 2.184 1.916H9.453c-1.645 0-2.772-.67-3.718-1.795l-3.563-4.684c-.88-1.056-1.3-1.823-2.172-1.916m22.849 16.972l-3.563-4.683c-.946-1.125-2.074-1.795-3.718-1.795H12.51c.873.092 1.305.858 2.184 1.915l3.563 4.683c.946 1.125 2.074 1.796 3.719 1.796h3.045c-.873-.092-1.293-.859-2.172-1.916m2.172-16.972h-3.045c-1.645 0-2.773.672-3.719 1.796l-3.563 4.683c-.879 1.058-1.31 1.823-2.184 1.916h3.058c1.644 0 2.772-.67 3.718-1.795l3.563-4.684c.879-1.056 1.3-1.823 2.172-1.916M2.17 350.667l3.564-4.683c.946-1.125 2.073-1.795 3.718-1.795h3.057c-.872.092-1.305.858-2.184 1.915l-3.562 4.683c-.946 1.125-2.074 1.796-3.719 1.796H0c.872-.092 1.293-.859 2.172-1.916M0 509.976h3.045c1.645 0 2.773.67 3.719 1.796l3.562 4.683c.88 1.057 1.312 1.823 2.184 1.916H9.453c-1.645 0-2.772-.671-3.718-1.796l-3.563-4.683c-.88-1.057-1.3-1.824-2.172-1.916m22.849 16.971l-3.563-4.683c-.946-1.125-2.074-1.795-3.718-1.795H12.51c.873.092 1.305.858 2.184 1.916l3.563 4.682c.946 1.125 2.074 1.796 3.719 1.796h3.045c-.873-.092-1.293-.859-2.172-1.916m2.172-16.971h-3.045c-1.645 0-2.773.67-3.719 1.796l-3.563 4.683c-.879 1.057-1.31 1.823-2.184 1.916h3.058c1.644 0 2.772-.671 3.718-1.796l3.563-4.683c.879-1.057 1.3-1.824 2.172-1.916M2.17 526.947l3.564-4.683c.946-1.125 2.073-1.795 3.718-1.795h3.057c-.872.092-1.305.858-2.184 1.916l-3.562 4.682c-.946 1.125-2.074 1.796-3.719 1.796H0c.872-.092 1.293-.859 2.172-1.916M48 22.023h-3.046c-1.644 0-2.772-.67-3.718-1.795l-3.563-4.683c-.88-1.057-1.31-1.823-2.184-1.916h3.057c1.645 0 2.773.67 3.719 1.795l3.562 4.684c.88 1.057 1.3 1.823 2.173 1.915M25.15 5.052l3.564 4.683c.945 1.126 2.074 1.796 3.718 1.796h3.057c-.873-.093-1.305-.858-2.183-1.916l-3.564-4.683c-.945-1.125-2.074-1.796-3.718-1.796h-3.046c.873.093 1.294.859 2.172 1.916m-2.172 16.971h3.046c1.644 0 2.773-.67 3.718-1.795l3.564-4.683c.878-1.057 1.31-1.823 2.183-1.916h-3.057c-1.644 0-2.773.67-3.718 1.795l-3.564 4.684c-.878 1.057-1.3 1.823-2.172 1.915m22.85-16.971l-3.563 4.683c-.946 1.126-2.074 1.796-3.719 1.796H35.49c.873-.093 1.305-.858 2.184-1.916l3.563-4.683c.946-1.125 2.074-1.796 3.718-1.796H48c-.872.093-1.294.859-2.173 1.916M48 198.304h-3.046c-1.644 0-2.772-.671-3.718-1.796l-3.563-4.682c-.88-1.058-1.31-1.824-2.184-1.916h3.057c1.645 0 2.773.67 3.719 1.795l3.562 4.683c.88 1.057 1.3 1.824 2.173 1.916m-22.85-16.972l3.564 4.684c.945 1.125 2.074 1.795 3.718 1.795h3.057c-.873-.093-1.305-.858-2.183-1.916l-3.564-4.683c-.945-1.124-2.074-1.796-3.718-1.796h-3.046c.873.093 1.294.86 2.172 1.916m-2.172 16.972h3.046c1.644 0 2.773-.671 3.718-1.796l3.564-4.682c.878-1.058 1.31-1.824 2.183-1.916h-3.057c-1.644 0-2.773.67-3.718 1.795l-3.564 4.683c-.878 1.057-1.3 1.824-2.172 1.916m22.85-16.972l-3.563 4.684c-.946 1.125-2.074 1.795-3.719 1.795H35.49c.873-.093 1.305-.858 2.184-1.916l3.563-4.683c.946-1.124 2.074-1.796 3.718-1.796H48c-.872.093-1.294.86-2.173 1.916M48 374.584h-3.046c-1.644 0-2.772-.67-3.718-1.796l-3.563-4.682c-.88-1.058-1.31-1.824-2.184-1.916h3.057c1.645 0 2.773.67 3.719 1.795l3.562 4.683c.88 1.057 1.3 1.824 2.173 1.916m-22.85-16.971l3.564 4.683c.945 1.125 2.074 1.796 3.718 1.796h3.057c-.873-.093-1.305-.86-2.183-1.916l-3.564-4.684c-.945-1.124-2.074-1.795-3.718-1.795h-3.046c.873.093 1.294.859 2.172 1.916m-2.172 16.971h3.046c1.644 0 2.773-.67 3.718-1.796l3.564-4.682c.878-1.058 1.31-1.824 2.183-1.916h-3.057c-1.644 0-2.773.67-3.718 1.795l-3.564 4.683c-.878 1.057-1.3 1.824-2.172 1.916m22.85-16.971l-3.563 4.683c-.946 1.125-2.074 1.796-3.719 1.796H35.49c.873-.093 1.305-.86 2.184-1.916l3.563-4.684c.946-1.124 2.074-1.795 3.718-1.795H48c-.872.093-1.294.859-2.173 1.916m2.15-291.497h-3.045c-1.645 0-2.773-.67-3.719-1.795l-3.562-4.684c-.88-1.057-1.311-1.822-2.184-1.915h3.057c1.645 0 2.773.67 3.719 1.795l3.562 4.684c.88 1.056 1.3 1.822 2.172 1.915M25.128 49.145l3.563 4.683c.946 1.125 2.074 1.795 3.719 1.795h3.057c-.873-.092-1.305-.858-2.184-1.916l-3.563-4.682c-.946-1.126-2.074-1.796-3.719-1.796h-3.045c.873.092 1.293.858 2.172 1.916m-2.172 16.971h3.045c1.645 0 2.773-.67 3.72-1.795l3.562-4.684c.879-1.057 1.311-1.822 2.184-1.915H32.41c-1.645 0-2.773.67-3.72 1.795L25.129 64.2c-.879 1.056-1.3 1.822-2.172 1.915m22.85-16.971l-3.563 4.683c-.946 1.125-2.074 1.795-3.719 1.795h-3.057c.873-.092 1.305-.858 2.184-1.916l3.562-4.682c.946-1.126 2.074-1.796 3.72-1.796h3.044c-.872.092-1.293.858-2.172 1.916m2.172 193.252h-3.045c-1.645 0-2.773-.672-3.719-1.796l-3.562-4.683c-.88-1.058-1.311-1.823-2.184-1.916h3.057c1.645 0 2.773.67 3.719 1.795l3.562 4.684c.88 1.056 1.3 1.823 2.172 1.916m-22.849-16.972l3.563 4.683c.946 1.125 2.074 1.795 3.719 1.795h3.057c-.873-.092-1.305-.858-2.184-1.916l-3.563-4.682c-.946-1.125-2.074-1.796-3.719-1.796h-3.045c.873.092 1.293.86 2.172 1.916m-2.172 16.972h3.045c1.645 0 2.773-.672 3.72-1.796l3.562-4.683c.879-1.058 1.311-1.823 2.184-1.916H32.41c-1.645 0-2.773.67-3.72 1.795l-3.562 4.684c-.879 1.056-1.3 1.823-2.172 1.916m22.85-16.972l-3.563 4.683c-.946 1.125-2.074 1.795-3.719 1.795h-3.057c.873-.092 1.305-.858 2.184-1.916l3.562-4.682c.946-1.125 2.074-1.796 3.72-1.796h3.044c-.872.092-1.293.86-2.172 1.916m2.172 193.252h-3.045c-1.645 0-2.773-.67-3.719-1.796l-3.562-4.683c-.88-1.058-1.311-1.823-2.184-1.916h3.057c1.645 0 2.773.67 3.719 1.796l3.562 4.683c.88 1.057 1.3 1.823 2.172 1.916m-22.849-16.971l3.563 4.683c.946 1.124 2.074 1.795 3.719 1.795h3.057c-.873-.092-1.305-.859-2.184-1.916l-3.563-4.683c-.946-1.125-2.074-1.795-3.719-1.795h-3.045c.873.092 1.293.858 2.172 1.916m-2.172 16.97h3.045c1.645 0 2.773-.67 3.72-1.795l3.562-4.683c.879-1.058 1.311-1.823 2.184-1.916H32.41c-1.645 0-2.773.67-3.72 1.796l-3.562 4.683c-.879 1.057-1.3 1.823-2.172 1.916m22.85-16.971l-3.563 4.683c-.946 1.124-2.074 1.795-3.719 1.795h-3.057c.873-.092 1.305-.859 2.184-1.916l3.562-4.683c.946-1.125 2.074-1.795 3.72-1.795h3.044c-.872.092-1.293.858-2.172 1.916m2.172-291.52h-3.045c-1.645 0-2.773-.67-3.719-1.796l-3.562-4.682c-.88-1.058-1.311-1.824-2.184-1.916h3.057c1.645 0 2.773.67 3.719 1.795l3.562 4.683c.88 1.058 1.3 1.824 2.172 1.916M25.128 93.215l3.563 4.683c.946 1.125 2.074 1.796 3.719 1.796h3.057c-.873-.093-1.305-.86-2.184-1.916l-3.563-4.683c-.946-1.125-2.074-1.796-3.719-1.796h-3.045c.873.093 1.293.859 2.172 1.916m-2.172 16.971h3.045c1.645 0 2.773-.67 3.72-1.796l3.562-4.682c.879-1.058 1.311-1.824 2.184-1.916H32.41c-1.645 0-2.773.67-3.72 1.795l-3.562 4.683c-.879 1.058-1.3 1.824-2.172 1.916m22.85-16.971l-3.563 4.683c-.946 1.125-2.074 1.796-3.719 1.796h-3.057c.873-.093 1.305-.86 2.184-1.916l3.562-4.683c.946-1.125 2.074-1.796 3.72-1.796h3.044c-.872.093-1.293.859-2.172 1.916m2.172 193.251h-3.045c-1.645 0-2.773-.67-3.719-1.796l-3.562-4.682c-.88-1.057-1.311-1.824-2.184-1.916h3.057c1.645 0 2.773.67 3.719 1.795l3.562 4.683c.88 1.058 1.3 1.824 2.172 1.916m-22.849-16.97l3.563 4.682c.946 1.126 2.074 1.796 3.719 1.796h3.057c-.873-.093-1.305-.858-2.184-1.916l-3.563-4.683c-.946-1.125-2.074-1.796-3.719-1.796h-3.045c.873.093 1.293.859 2.172 1.916m-2.172 16.971h3.045c1.645 0 2.773-.67 3.72-1.796l3.562-4.682c.879-1.057 1.311-1.824 2.184-1.916H32.41c-1.645 0-2.773.67-3.72 1.795l-3.562 4.683c-.879 1.058-1.3 1.824-2.172 1.916m22.85-16.97l-3.563 4.682c-.946 1.126-2.074 1.796-3.719 1.796h-3.057c.873-.093 1.305-.858 2.184-1.916l3.562-4.683c.946-1.125 2.074-1.796 3.72-1.796h3.044c-.872.093-1.293.859-2.172 1.916m2.172 193.252h-3.045c-1.645 0-2.773-.671-3.719-1.796l-3.562-4.683c-.88-1.057-1.311-1.823-2.184-1.915h3.057c1.645 0 2.773.67 3.719 1.794l3.562 4.684c.88 1.057 1.3 1.823 2.172 1.916m-22.849-16.972l3.563 4.684c.946 1.125 2.074 1.795 3.719 1.795h3.057c-.873-.093-1.305-.858-2.184-1.916l-3.563-4.683c-.946-1.125-2.074-1.796-3.719-1.796h-3.045c.873.093 1.293.859 2.172 1.916m-2.172 16.972h3.045c1.645 0 2.773-.671 3.72-1.796l3.562-4.683c.879-1.057 1.311-1.823 2.184-1.915H32.41c-1.645 0-2.773.67-3.72 1.794l-3.562 4.684c-.879 1.057-1.3 1.823-2.172 1.916m22.85-16.972l-3.563 4.684c-.946 1.125-2.074 1.795-3.719 1.795h-3.057c.873-.093 1.305-.858 2.184-1.916l3.562-4.683c.946-1.125 2.074-1.796 3.72-1.796h3.044c-.872.093-1.293.859-2.172 1.916m2.172-291.518h-3.045c-1.645 0-2.773-.672-3.719-1.796l-3.562-4.683c-.88-1.058-1.311-1.823-2.184-1.916h3.057c1.645 0 2.773.67 3.719 1.795l3.562 4.684c.88 1.056 1.3 1.823 2.172 1.916m-22.849-16.972l3.563 4.683c.946 1.125 2.074 1.795 3.719 1.795h3.057c-.873-.092-1.305-.858-2.184-1.916l-3.563-4.682c-.946-1.125-2.074-1.796-3.719-1.796h-3.045c.873.092 1.293.858 2.172 1.916m-2.172 16.972h3.045c1.645 0 2.773-.672 3.72-1.796l3.562-4.683c.879-1.058 1.311-1.823 2.184-1.916H32.41c-1.645 0-2.773.67-3.72 1.795l-3.562 4.684c-.879 1.056-1.3 1.823-2.172 1.916m22.85-16.972l-3.563 4.683c-.946 1.125-2.074 1.795-3.719 1.795h-3.057c.873-.092 1.305-.858 2.184-1.916l3.562-4.682c.946-1.125 2.074-1.796 3.72-1.796h3.044c-.872.092-1.293.858-2.172 1.916m2.172 193.252h-3.045c-1.645 0-2.773-.672-3.719-1.796l-3.562-4.683c-.88-1.058-1.311-1.823-2.184-1.916h3.057c1.645 0 2.773.67 3.719 1.796l3.562 4.683c.88 1.057 1.3 1.823 2.172 1.916m-22.849-16.972l3.563 4.684c.946 1.124 2.074 1.794 3.719 1.794h3.057c-.873-.092-1.305-.858-2.184-1.916l-3.563-4.682c-.946-1.125-2.074-1.796-3.719-1.796h-3.045c.873.092 1.293.86 2.172 1.916m-2.172 16.972h3.045c1.645 0 2.773-.672 3.72-1.796l3.562-4.683c.879-1.058 1.311-1.823 2.184-1.916H32.41c-1.645 0-2.773.67-3.72 1.796l-3.562 4.683c-.879 1.057-1.3 1.823-2.172 1.916m22.85-16.972l-3.563 4.684c-.946 1.124-2.074 1.794-3.719 1.794h-3.057c.873-.092 1.305-.858 2.184-1.916l3.562-4.682c.946-1.125 2.074-1.796 3.72-1.796h3.044c-.872.092-1.293.86-2.172 1.916m2.172 193.252h-3.045c-1.645 0-2.773-.67-3.719-1.796l-3.562-4.683c-.88-1.058-1.311-1.823-2.184-1.916h3.057c1.645 0 2.773.67 3.719 1.796l3.562 4.683c.88 1.057 1.3 1.823 2.172 1.916m-22.849-16.971l3.563 4.683c.946 1.124 2.074 1.795 3.719 1.795h3.057c-.873-.092-1.305-.859-2.184-1.916l-3.563-4.682c-.946-1.126-2.074-1.796-3.719-1.796h-3.045c.873.092 1.293.858 2.172 1.916m-2.172 16.97h3.045c1.645 0 2.773-.67 3.72-1.795l3.562-4.683c.879-1.058 1.311-1.823 2.184-1.916H32.41c-1.645 0-2.773.67-3.72 1.796l-3.562 4.683c-.879 1.057-1.3 1.823-2.172 1.916m22.85-16.971l-3.563 4.683c-.946 1.124-2.074 1.795-3.719 1.795h-3.057c.873-.092 1.305-.859 2.184-1.916l3.562-4.682c.946-1.126 2.074-1.796 3.72-1.796h3.044c-.872.092-1.293.858-2.172 1.916" opacity=".14"/>
</svg>
