<svg xmlns="http://www.w3.org/2000/svg" width="22" height="18" viewBox="0 0 22 18">
    <path fill="#8DCDE6" fill-rule="evenodd" d="M22 2.13c-.81.36-1.678.606-2.592.716A4.546 4.546 0 0 0 21.39.331a8.965 8.965 0 0 1-2.865 1.103A4.489 4.489 0 0 0 15.232 0c-2.496 0-4.515 2.034-4.515 4.543 0 .357.039.703.118 1.036-3.754-.19-7.078-2-9.304-4.747a4.553 4.553 0 0 0-.613 2.284c0 1.575.799 2.966 2.01 3.782A4.505 4.505 0 0 1 .881 6.33v.057a4.542 4.542 0 0 0 3.622 4.456 4.518 4.518 0 0 1-2.038.08 4.526 4.526 0 0 0 4.217 3.154A9.026 9.026 0 0 1 0 15.956 12.694 12.694 0 0 0 6.92 18c8.302 0 12.842-6.926 12.842-12.93 0-.197-.004-.392-.013-.588A9.237 9.237 0 0 0 22 2.129"/>
</svg>
